HIERARCHY
ROOT Hips
{
    OFFSET 0.000000 0.000000 0.000000
    CHANNELS 6 Xposition Yposition Zposition Zrotation Xrotation Yrotation
    JOINT Spine
    {
        OFFSET -0.000000 7.246840 0.000000
        CHANNELS 3 Zrotation Xrotation Yrotation
        JOINT Spine1
        {
            OFFSET -0.000000 20.289354 0.000000
            CHANNELS 3 Zrotation Xrotation Yrotation
            JOINT Neck
            {
                OFFSET -0.000000 20.206032 1.836912
                CHANNELS 3 Zrotation Xrotation Yrotation
                JOINT Head
                {
                    OFFSET -0.000000 12.372654 -1.767522
                    CHANNELS 3 Zrotation Xrotation Yrotation
                    End Site
                    {
                        OFFSET -0.000000 22.094025 0.000000
                    }
                }
            }
            JOINT LeftShoulder
            {
                OFFSET 3.465871 17.201674 -0.568930
                CHANNELS 3 Zrotation Xrotation Yrotation
                JOINT LeftArm
                {
                    OFFSET 14.070313 0.000000 0.000000
                    CHANNELS 3 Zrotation Xrotation Yrotation
                    JOINT LeftForeArm
                    {
                        OFFSET 26.549477 0.000000 0.000000
                        CHANNELS 3 Zrotation Xrotation Yrotation
                        JOINT LeftHand
                        {
                            OFFSET 18.880413 0.000000 0.000000
                            CHANNELS 3 Zrotation Xrotation Yrotation
                            End Site
                            {
                                OFFSET 13.256415 0.000000 0.000000
                            }
                        }
                    }
                }
            }
            JOINT RightShoulder
            {
                OFFSET -3.526370 17.201674 -0.568930
                CHANNELS 3 Zrotation Xrotation Yrotation
                JOINT RightArm
                {
                    OFFSET -14.070313 0.000000 0.000000
                    CHANNELS 3 Zrotation Xrotation Yrotation
                    JOINT RightForeArm
                    {
                        OFFSET -26.549477 0.000000 0.000000
                        CHANNELS 3 Zrotation Xrotation Yrotation
                        JOINT RightHand
                        {
                            OFFSET -18.880413 0.000000 0.000000
                            CHANNELS 3 Zrotation Xrotation Yrotation
                            End Site
                            {
                                OFFSET -13.256415 0.000000 0.000000
                            }
                        }
                    }
                }
            }
        }
    }
    JOINT LeftUpLeg
    {
        OFFSET 8.837609 0.000000 0.000000
        CHANNELS 3 Zrotation Xrotation Yrotation
        JOINT LeftLeg
        {
            OFFSET -0.000000 -41.345005 0.000000
            CHANNELS 3 Zrotation Xrotation Yrotation
            JOINT LeftFoot
            {
                OFFSET -0.000000 -35.500874 0.000000
                CHANNELS 3 Zrotation Xrotation Yrotation
                JOINT LeftToeBase
                {
                    OFFSET -0.000000 -5.744446 13.256415
                    CHANNELS 3 Zrotation Xrotation Yrotation
                    End Site
                    {
                        OFFSET -0.000000 0.000000 3.535044
                    }
                }
            }
        }
    }
    JOINT RightUpLeg
    {
        OFFSET -8.837609 0.000000 0.000000
        CHANNELS 3 Zrotation Xrotation Yrotation
        JOINT RightLeg
        {
            OFFSET -0.000000 -41.345005 0.000000
            CHANNELS 3 Zrotation Xrotation Yrotation
            JOINT RightFoot
            {
                OFFSET -0.000000 -35.500874 0.000000
                CHANNELS 3 Zrotation Xrotation Yrotation
                JOINT RightToeBase
                {
                    OFFSET -0.000000 -5.744446 13.256415
                    CHANNELS 3 Zrotation Xrotation Yrotation
                    End Site
                    {
                        OFFSET -0.000000 0.000000 3.535044
                    }
                }
            }
        }
    }
}
MOTION
Frames:    9
Frame Time:    0.010000
1.144391    82.570732    -32.701397    2.980797    2.909238    4.870539    -3.920122    -11.074859    -0.880759    -1.101222    4.276325    -0.459595    2.463146    30.462261    -1.393887    0.245155    -12.299716    -1.044369    18.505705    0.995689    6.691524    -33.310795    13.227503    -9.893491    7.126285    -9.043190    -15.071748    -17.393835    -5.177888    -19.115057    -15.318909    1.449858    11.230412    20.549215    4.153891    3.777168    -5.877466    -9.422510    15.918018    -27.331297    -10.645573    8.474867    -1.042655    6.533591    1.197882    -1.136336    -6.878072    -1.967250    0.195062    0.911825    -0.456686    0.467593    -1.305509    -0.659791    -8.124135    -1.597128    -2.188150    2.469443    6.274436    4.433382    3.296158    -7.630382    -12.669234    -0.280353    -0.745346    0.506852    
1.155983    82.571114    -32.701534    2.980939    2.906850    4.861255    -3.914902    -11.069552    -0.879482    -1.104966    4.273108    -0.458926    2.451347    30.458927    -1.384216    0.279709    -12.296320    -1.027517    18.502415    0.999793    6.692234    -33.317883    13.215781    -9.888144    7.133997    -9.029105    -15.059847    -17.417814    -5.158222    -19.121925    -15.326287    1.471130    11.223170    20.543579    4.118851    3.797080    -5.871284    -9.393232    15.891659    -27.312284    -10.620707    8.489722    -1.044837    6.541050    1.193444    -1.139682    -6.891685    -2.052254    0.174765    0.898594    -0.553897    0.355054    -1.345729    -0.501119    -8.138755    -1.594476    -2.178130    2.494920    6.265916    4.425961    3.307000    -7.629444    -12.658022    -0.279608    -0.759533    0.505583    
1.167651    82.570724    -32.701218    2.982616    2.903676    4.850616    -3.912822    -11.065962    -0.875030    -1.105652    4.274129    -0.454623    2.432748    30.466599    -1.384256    0.330192    -12.316139    -1.017458    18.508425    0.996552    6.689358    -33.336887    13.207203    -9.882742    7.140419    -9.022896    -15.045205    -17.465572    -5.142323    -19.131424    -15.331862    1.472867    11.211542    20.538820    4.124370    3.808172    -5.864869    -9.386180    15.861349    -27.295300    -10.611942    8.477792    -1.053368    6.548099    1.199594    -1.151192    -6.888050    -2.003906    0.181711    0.912623    -0.408430    0.468705    -1.333409    -0.661473    -8.145258    -1.594388    -2.180495    2.485317    6.268128    4.408322    3.313688    -7.622396    -12.635130    -0.280118    -0.753694    0.506473    
1.177006    82.569939    -32.702316    2.976779    2.908925    4.843756    -3.904125    -11.066800    -0.874609    -1.115646    4.272645    -0.454766    2.465192    30.471270    -1.389626    0.315462    -12.339383    -1.021938    18.513489    1.011155    6.697841    -33.333363    13.215931    -9.890749    7.131051    -9.057423    -15.056990    -17.498341    -5.173094    -19.124475    -15.360933    1.189433    11.234924    20.785051    3.426738    3.839119    -5.909353    -8.938480    15.563797    -27.114866    -10.263646    8.906791    -1.055951    6.544409    1.199661    -1.150273    -6.887489    -1.997883    0.216996    0.792984    -0.690010    0.305361    -1.337219    -0.430960    -8.149628    -1.599910    -2.181223    2.493538    6.269621    4.475762    3.320074    -7.630886    -12.699429    -0.281776    -0.736585    0.509375    
1.188264    82.569435    -32.702023    2.972219    2.906022    4.832520    -3.894714    -11.064772    -0.871552    -1.110044    4.275918    -0.452717    2.459023    30.477558    -1.395084    0.323679    -12.362989    -1.026218    18.503841    1.007674    6.691800    -33.346222    13.193678    -9.878819    7.136341    -9.043351    -15.058076    -17.540661    -5.159423    -19.070326    -15.374722    1.202806    11.235645    20.777958    3.449926    3.841916    -5.892615    -8.968774    15.545717    -27.140484    -10.292070    8.877336    -1.051829    6.553511    1.167945    -1.156422    -6.907720    -1.992936    0.208152    0.890762    -0.566865    0.370176    -1.334667    -0.522426    -8.152925    -1.597537    -2.194299    2.491876    6.261783    4.444419    3.336822    -7.621319    -12.638130    -0.281096    -0.742911    0.508181    
1.197997    82.568192    -32.702312    2.965534    2.907019    4.818041    -3.890661    -11.061054    -0.868351    -1.099647    4.273571    -0.450480    2.445504    30.466499    -1.388104    0.352328    -12.360035    -1.014089    18.504490    1.009767    6.699283    -33.368240    13.183591    -9.882385    7.138615    -9.064086    -15.064147    -17.572433    -5.178853    -19.040991    -15.336748    1.472830    11.217413    20.685389    3.495847    3.929486    -6.044732    -9.168418    15.543871    -27.099516    -10.440950    8.767050    -1.053415    6.556051    1.178456    -1.171739    -6.896189    -1.921166    0.270630    0.983997    -0.377660    0.525830    -1.362705    -0.742224    -8.152308    -1.599449    -2.202292    2.489061    6.258689    4.477589    3.327335    -7.616683    -12.655511    -0.290947    -0.738366    0.525963    
1.208875    82.567345    -32.700649    2.960755    2.904713    4.804827    -3.867064    -11.061194    -0.864874    -1.128870    4.281754    -0.448137    2.477922    30.456148    -1.400917    0.341527    -12.364659    -1.025786    18.521629    1.010475    6.708418    -33.372952    13.210182    -9.879217    7.143847    -9.078675    -15.078228    -17.614973    -5.192667    -18.990719    -15.324971    1.478156    11.218151    20.690641    3.482748    3.931252    -6.040985    -9.202129    15.536385    -27.126387    -10.473070    8.748116    -1.045098    6.566081    1.162964    -1.174806    -6.917137    -2.017452    0.254729    0.765740    -0.641752    0.293515    -1.326659    -0.414215    -8.157794    -1.592361    -2.184120    2.500167    6.244871    4.486826    3.307942    -7.609886    -12.669570    -0.285503    -0.749781    0.516186    
1.219641    82.566681    -32.701565    2.954149    2.907798    4.790438    -3.855094    -11.057297    -0.860679    -1.123705    4.275171    -0.445625    2.452786    30.434118    -1.397728    0.373793    -12.342637    -1.018646    18.499416    1.027520    6.718313    -33.368969    13.143396    -9.907551    7.150804    -9.029441    -15.051157    -17.655497    -5.140047    -18.970938    -15.333511    1.471792    11.223825    20.699972    3.465053    3.914760    -6.035192    -9.225712    15.533034    -27.122490    -10.501315    8.765438    -1.048778    6.567590    1.175049    -1.169723    -6.927894    -2.001913    0.270968    0.992705    -0.270083    0.522923    -1.356379    -0.738093    -8.158034    -1.593687    -2.193421    2.490667    6.228936    4.476039    3.345240    -7.609201    -12.632699    -0.273621    -0.720645    0.494546    
1.230195    82.565002    -32.700096    2.952769    2.907701    4.774011    -3.848542    -11.057950    -0.853498    -1.119249    4.279941    -0.439087    2.445684    30.418602    -1.408514    0.388955    -12.337664    -1.027563    18.494970    1.016221    6.707859    -33.381691    13.115943    -9.902458    7.152722    -8.992127    -15.054194    -17.671461    -5.110583    -18.899702    -15.376946    1.209022    11.231598    20.797981    4.090062    3.733260    -6.074794    -9.430768    15.638425    -27.190130    -10.658312    8.590949    -1.062593    6.570075    1.217041    -1.162810    -6.924714    -2.039207    0.229189    1.027878    -0.235189    0.528030    -1.351702    -0.745279    -8.166337    -1.587353    -2.168710    2.500316    6.211979    4.491848    3.348224    -7.608471    -12.649466    -0.275687    -0.740264    0.498387    
